PathFileType	4	(X/Y/Z)	Patient5_TMGait_0pt45_1_right_11.trc.trc
DataRate	CameraRate	NumFrames	NumMarkers	Units	OrigDataRate	OrigDataStartFrame	OrigNumFrames
64.814814814815	64.814814814815	6	32	mm	64.814814814815	36	       141
Frame#	Time	R.ASIS			L.ASIS			Chest			R.Shoulder			Neck			L.Shoulder			L.Elbow			L.Wrist			R.Elbow			R.Wrist			L.Thigh.Superior			L.Thigh.Lateral			L.Thigh.Inferior			L.Patella			L.Shank.Superior			L.Shank.Lateral			L.Shank.Inferior			L.Heel			L.Midfoot.Lateral			L.Midfoot.Superior			L.Toe			R.Thigh.Superior			R.Thigh.Lateral			R.Thigh.Inferior			R.Patella			R.Shank.Superior			R.Shank.Lateral			R.Shank.Inferior			R.Heel			R.Midfoot.Lateral			R.Midfoot.Superior			R.Toe			
		X1	Y1	Z1	X2	Y2	Z2	X3	Y3	Z3	X4	Y4	Z4	X5	Y5	Z5	X6	Y6	Z6	X7	Y7	Z7	X8	Y8	Z8	X9	Y9	Z9	X10	Y10	Z10	X11	Y11	Z11	X12	Y12	Z12	X13	Y13	Z13	X14	Y14	Z14	X15	Y15	Z15	X16	Y16	Z16	X17	Y17	Z17	X18	Y18	Z18	X19	Y19	Z19	X20	Y20	Z20	X21	Y21	Z21	X22	Y22	Z22	X23	Y23	Z23	X24	Y24	Z24	X25	Y25	Z25	X26	Y26	Z26	X27	Y27	Z27	X28	Y28	Z28	X29	Y29	Z29	X30	Y30	Z30	X31	Y31	Z31	X32	Y32	Z32	

36	18.610000000000	982.149769456729	968.482579779820	569.904298536720	945.642934416765	950.175418411099	333.180683608848	1029.305474396662	1426.576979765689	467.531033880004	942.315078968991	1483.173816514409	643.977874411036	903.059763002853	1550.112805109092	464.039128995092	949.979328436698	1499.200063677823	278.044980056749	841.122226290795	1197.333373652481	140.982218178282	924.684471077636	918.355828428733	132.511291896573	873.207802577796	1162.282482563488	785.644754768415	1079.828709707153	984.028984116909	685.737450900417	962.963020523289	729.395732834557	298.438023798695	883.342789513428	664.325720860555	258.667665840131	963.242437275621	598.077160909564	300.814582606554	943.302672871895	455.030052956246	289.156250482773	843.178499878662	383.377429272998	320.374784440354	739.191492470889	374.977850243581	252.716889352378	742.190723222773	308.572740121432	338.537090936282	493.929157343835	214.786550896010	349.038590677720	539.635576984979	127.956611936868	299.514777178504	653.807988031085	113.757593432953	335.845002266085	702.093447730190	38.934248216882	357.354247170194	1019.004992018165	743.703575099249	600.890363528246	942.257928255750	657.717206617243	649.412316142024	1030.158084878851	616.843825667997	575.408326345770	1038.650204280292	516.085394673321	600.095424648884	994.507722047454	413.854287917423	558.095405955560	922.758867907307	343.655614582216	638.272034653824	971.170833882223	275.705075064989	550.590681522073	840.336036758609	53.401055636114	511.350272138406	918.412209019400	25.290043504410	585.217040152557	1024.615108732515	87.778799741927	561.233470957356	1128.261032246801	43.859678400808	562.521080684753	
37	18.625428571429	984.829306680421	968.048671217854	572.023962574450	946.493326803384	949.876576551393	335.364322775750	1033.150630039036	1425.638964584943	470.290569014655	948.046695633628	1482.063437159510	647.671985489035	907.112012946535	1549.742090589047	468.346285131898	952.491320351678	1499.245147330053	281.766172553467	840.368437530357	1198.607742309253	144.952062352191	921.288991252889	918.850616194854	136.014009097819	880.624138405758	1161.257532495947	790.150518933792	1088.306826922571	984.765088099433	689.498524162013	972.082223351382	731.754334916349	297.609145777624	895.632497097856	664.158830937087	257.809943467436	978.888510767932	600.805268585605	299.151902693898	963.732515108517	456.436908681439	288.037022917587	861.249448545095	385.090235648611	319.189919597589	757.910002787222	379.208396398565	250.545551660243	757.596077351221	313.880035354379	336.910356532766	507.100254890724	234.513901542330	346.287921072064	546.775250009476	143.903679701362	297.375735106511	660.031167497366	121.438585978841	334.801982028136	701.401200096572	38.758138394709	356.362773595316	1017.669315225473	742.633967595961	601.432119710943	939.777314488542	657.796385392677	650.824615498516	1025.756833732015	615.380442453343	575.642924555286	1032.826952569744	514.839287589041	600.173959372373	988.003658654686	413.468056849466	558.567441125140	916.559448233568	343.367506781951	638.903436225827	964.407932368820	275.432387535565	550.998495365927	833.380931766176	53.242765411166	511.397801878798	911.416313072611	25.139157466807	585.319914644752	1017.601179178726	87.603343797107	561.192227701163	1121.255647676929	43.776208822277	562.588856709300	
38	18.640857142857	987.348118203550	967.807321605943	574.229466048465	947.282273911418	949.759700805118	337.277321510770	1036.748258858431	1424.751947333208	472.636351320518	953.529985983234	1480.907585493018	650.938806508892	910.986648301969	1549.387711240412	472.208907642868	954.683074206254	1499.300284866517	285.061570033567	839.574352253344	1199.484197919354	149.004749970280	918.388460351058	919.137282840351	139.471914397820	888.228434029203	1160.181497891219	794.365526994571	1096.704304182945	984.850529113491	693.481799981438	980.991071318024	734.783423066450	297.518199963544	907.920641606617	664.639890798495	257.599228682939	994.340745419232	604.570604740507	298.548531456706	984.065982619449	458.996959300748	288.050600001497	879.545211979047	387.740085068910	318.886901835376	777.069148869009	383.904288191376	249.108692297018	773.726187450898	319.708402569919	336.056395849311	521.673287014066	252.524855615746	343.939431556837	556.470176793824	159.245011540908	295.304859584265	668.602582037629	129.889758635198	334.044360970405	703.917626608080	39.474201215344	355.250159635577	1015.996300984760	741.562248074423	601.099057611313	936.994169172375	658.040190327799	651.844305446963	1020.541522222986	613.927876042687	575.157623531018	1026.120600807933	513.771693011930	599.602520139822	980.640459090150	413.323335294266	558.641751296524	909.948015920384	343.290359675791	639.347865567050	957.212490342259	275.371154826292	551.155763545602	826.399799176563	53.121465581444	511.465319356985	904.399135333256	25.023477687327	585.428093957273	1010.582489818600	87.455207833768	561.121738845097	1114.239536261097	43.687413472898	562.620126999809	
39	18.656285714286	989.750481200666	967.804794355313	576.482635095023	948.090182179334	949.980964841982	338.994055687989	1040.105298912410	1424.074135487664	474.531801685653	958.730036346731	1479.864298929615	653.716284380186	914.707597323188	1549.177497521866	475.559204658804	956.605261598716	1499.531061140355	287.892865681077	838.748288514557	1200.137814232745	153.104851559687	915.998007548750	919.372876013886	142.824933777406	896.010734456470	1159.221641512186	798.215476076164	1104.973721445633	984.408153552748	697.577124951380	989.576013551017	738.577344843397	298.323500616146	920.039676074023	665.940163549060	258.095034416212	1009.321146086299	609.435424539869	299.081400554542	1003.971355274779	462.730155170289	289.062260591587	897.816894703757	391.277041974320	319.375930281703	796.278890825964	388.959050484667	248.469186690321	790.379489835206	325.813698919109	335.960608499916	537.210805575693	267.654498090863	342.177449654388	568.803182282896	172.930672488914	293.424657648500	679.866775891642	138.583855421797	333.557220987530	710.612875059087	41.336981138639	354.007388629619	1014.037882935598	740.465209017980	600.233114732484	933.773667521507	658.429198487441	652.527201926428	1014.574571233005	612.516384624601	574.229361952947	1018.538099010283	512.911274096102	598.619080063985	972.473363277363	413.468894995440	558.428630522396	902.863761336709	343.478249951994	639.648974239932	949.620125268812	275.567687475422	551.140876422366	819.387030189072	53.060956054894	511.571182085401	897.363101571586	24.951375461913	585.546880586441	1003.554456966523	87.350827472623	561.060835866633	1107.207832010311	43.618534085088	562.632960145093	
40	18.671714285714	992.091177014137	968.014829130805	578.642735735703	948.989058666847	950.636322034238	340.576212813907	1043.257895395810	1423.718857553458	475.951986495734	963.662916500522	1479.059312028748	655.972784547662	918.305382754856	1549.198279635722	478.370726481394	958.309312806087	1500.058813721767	290.250869518252	837.953605085872	1200.741554355433	157.154595050684	914.160394010510	919.705347872002	146.064253379395	903.887414077376	1158.534187610338	801.662975277013	1113.057088754008	983.655699719722	701.664929341360	997.765036999921	743.151467016077	300.034168027175	931.846202559298	668.143090493801	259.272547325587	1023.615288378267	615.356492373332	300.691514100296	1023.201752864230	467.590752884914	290.871771841518	915.895056574094	395.562983150459	320.514002865838	815.232732123078	394.182251043192	248.640555406629	807.418599739420	331.862812481233	336.545995169481	553.378325662798	278.903250830011	341.156931562485	583.774125263733	184.005763592241	291.849782262124	694.077858835636	146.925500393348	333.288982397985	722.291506031491	44.406319695870	352.587662053744	1011.771943018652	739.304174946087	599.135220704803	929.992253934711	658.919006610618	652.945578860830	1007.904056402232	611.154999776210	573.102592780913	1010.122049038419	512.251817952594	597.443436604414	963.581092019701	413.915493990052	558.042913988878	895.256616229124	343.942938992627	639.849782039686	941.663104920389	276.033578812904	551.033808761425	812.336046844883	53.067439354386	511.724853374962	890.309287427301	24.920001458326	585.675545513452	996.512286834181	87.294758634538	561.034655249674	1100.156202136862	43.585582450312	562.638961111814	
41	18.687142857143	994.399149149556	968.346957238130	580.536485727995	950.026778164791	951.742089933923	342.063248984521	1046.270325752872	1423.728768424756	476.893275460085	968.394165361995	1478.564223757140	657.711732276113	921.817057381949	1549.478056889852	480.657402477232	959.853616969785	1500.929605804156	292.154398740659	837.282275121128	1201.428324276119	161.015569927706	912.936287508489	920.243890286671	149.213375922467	911.719505778469	1158.234023129803	804.711420145575	1120.889445631484	982.857593514802	705.625467203601	1005.510211678985	748.437103675426	302.520061419489	943.221182956667	671.231656645881	261.031222325886	1037.073609610512	622.196080888077	303.207463365999	1041.594561816449	473.475718586261	293.262419824117	933.695926839618	400.391679044586	322.144564367574	833.740717551143	399.306921277204	249.587642169905	824.783288516797	337.473909399495	337.700394714549	570.038980974090	285.568943912657	340.977113018040	601.318050772762	191.746164562582	290.666735042058	711.358071263034	154.319733882182	333.163396517340	739.404520407371	48.471560464797	350.912801988370	1009.139599917678	738.046600162487	598.013486265703	925.606634232889	659.449791553757	653.180873245595	1000.618497771407	609.840855754485	571.957511760414	1001.009240888228	511.755439001788	596.250216554339	954.104773029511	414.629385095748	557.593067516254	887.143424479647	344.653237188660	639.994096498989	933.396042937249	276.740567631021	550.906651456624	805.240000438464	53.132775729742	511.928394750671	883.237928639995	24.919333314863	585.809924804942	989.451864272613	87.282017537286	561.055377920457	1093.082674554829	43.596025400702	562.643336522370	
